<svg xmlns="http://www.w3.org/2000/svg" viewBox="0 0 149.93 29.5"><defs><style>.cls-1{fill:#44576b}.cls-2{fill:none;stroke:#44576b;stroke-linecap:round;stroke-linejoin:round;stroke-width:3px}</style></defs><title>Asset 2</title><g id="Layer_2" data-name="Layer 2"><g id="Layer_1-2" data-name="Layer 1"><path class="cls-1" d="M8.61 18.43a1.76 1.76 0 0 1 1.76 1.76v7.55a1.76 1.76 0 0 1-3.52 0v-7.55a1.76 1.76 0 0 1 1.76-1.76z"/><path class="cls-1" d="M4.6 9.36V21a2.2 2.2 0 0 0 2.18 2.22H18.4A2.2 2.2 0 0 0 20.58 21V9.36H4.6z"/><path class="cls-1" d="M16.55 18.43a1.76 1.76 0 0 1 1.76 1.76v7.55a1.76 1.76 0 0 1-3.52 0v-7.55a1.76 1.76 0 0 1 1.76-1.76zM1.76 10.38a1.76 1.76 0 0 1 1.76 1.76v7.55a1.76 1.76 0 1 1-3.52 0v-7.55a1.76 1.76 0 0 1 1.76-1.76zm21.64 0a1.76 1.76 0 0 1 1.76 1.76v7.55a1.76 1.76 0 0 1-3.52 0v-7.55a1.76 1.76 0 0 1 1.76-1.76z"/><path class="cls-2" d="M5.26 1.5l1.86 3.21M19.9 1.5L18 4.71"/><path class="cls-1" d="M13.47 1.84H11.7c-3.93.38-7 3.26-7 6.77h15.81c-.04-3.51-3.11-6.39-7.04-6.77zm-3.25 3.62a.91.91 0 0 1-1.82 0 .91.91 0 0 1 1.82 0zm6.79 0a.91.91 0 0 1-1.82 0 .91.91 0 0 1 1.82 0zm12.67 12.35a10.46 10.46 0 0 1 .68-3.81 9.4 9.4 0 0 1 1.91-3.08 8.8 8.8 0 0 1 2.94-2.06A9.28 9.28 0 0 1 39 8.13a8.27 8.27 0 0 1 2.81.46 7.67 7.67 0 0 1 2.45 1.49V8.49h4.62v18.65h-4.65v-1.59A7.66 7.66 0 0 1 41.78 27a8.26 8.26 0 0 1-2.78.5 9.28 9.28 0 0 1-3.75-.75 8.8 8.8 0 0 1-2.94-2.06 9.41 9.41 0 0 1-1.91-3.08 10.46 10.46 0 0 1-.72-3.8zm9.89 5.33a5.93 5.93 0 0 0 1.14-.14 5.35 5.35 0 0 0 1.21-.4 5.67 5.67 0 0 0 1.19-.76 6.82 6.82 0 0 0 1.11-1.17v-5.75a6.54 6.54 0 0 0-1.11-1.16 6.23 6.23 0 0 0-1.19-.76 5.09 5.09 0 0 0-1.21-.41 6 6 0 0 0-1.15-.12 5.07 5.07 0 0 0-2 .4A4.91 4.91 0 0 0 35.92 14a5.22 5.22 0 0 0-1.08 1.69 5.94 5.94 0 0 0 0 4.24 5.22 5.22 0 0 0 1.08 1.69 4.91 4.91 0 0 0 1.63 1.12 5.07 5.07 0 0 0 2 .4zm20.84-10.41a3.91 3.91 0 0 0-4.09 3.81v10.6h-4.63V16.67a8.84 8.84 0 0 1 8.65-8.54h.13a8.84 8.84 0 0 1 8.65 8.54v10.47H64.5v-10.6a3.91 3.91 0 0 0-4.09-3.81m10.91 5.08A10.46 10.46 0 0 1 72 14a9.41 9.41 0 0 1 1.91-3.08 8.8 8.8 0 0 1 2.94-2.06 9.28 9.28 0 0 1 3.75-.75 8.35 8.35 0 0 1 2.82.46 7.59 7.59 0 0 1 2.44 1.47V2.9h4.62v24.24h-4.62v-1.57a7.31 7.31 0 0 1-2.44 1.48 8.5 8.5 0 0 1-2.82.45 9.28 9.28 0 0 1-3.75-.75 8.8 8.8 0 0 1-2.94-2.06A9.4 9.4 0 0 1 72 21.62a10.46 10.46 0 0 1-.68-3.81zm9.89 5.33a5.93 5.93 0 0 0 1.14-.14 5.35 5.35 0 0 0 1.21-.4 5.67 5.67 0 0 0 1.19-.76 6.83 6.83 0 0 0 1.11-1.17v-5.75a6.55 6.55 0 0 0-1.11-1.16 6.22 6.22 0 0 0-1.19-.76 5.09 5.09 0 0 0-1.21-.41 6 6 0 0 0-1.15-.12 5.07 5.07 0 0 0-2 .4A4.91 4.91 0 0 0 77.56 14a5.22 5.22 0 0 0-1.08 1.69 5.95 5.95 0 0 0 0 4.24 5.22 5.22 0 0 0 1.08 1.69 4.91 4.91 0 0 0 1.63 1.12 5.07 5.07 0 0 0 2 .4zm30.94 0a4.94 4.94 0 0 0 2-.39 4.82 4.82 0 0 0 1.6-1.1 5.19 5.19 0 0 0 1.03-1.65 5.74 5.74 0 0 0 .39-2.16 5.57 5.57 0 0 0-.4-2.14 5.24 5.24 0 0 0-1.09-1.7 5.06 5.06 0 0 0-1.6-1.11 4.74 4.74 0 0 0-1.93-.4 4.85 4.85 0 0 0-2 .4 4.93 4.93 0 0 0-1.6 1.11 5.32 5.32 0 0 0-1.08 1.68 5.57 5.57 0 0 0-.4 2.14 5.74 5.74 0 0 0 .39 2.16 5.19 5.19 0 0 0 1.07 1.68 4.81 4.81 0 0 0 1.6 1.1 5 5 0 0 0 2.01.39zm0 4.35a10 10 0 0 1-3.81-.73 9.56 9.56 0 0 1-5.23-5.11 9.53 9.53 0 0 1-.77-3.85 9.33 9.33 0 0 1 .76-3.8 9.82 9.82 0 0 1 9-5.9 9.66 9.66 0 0 1 3.81.76 9.75 9.75 0 0 1 5.26 5.14 9.33 9.33 0 0 1 .77 3.79 9.56 9.56 0 0 1-2.89 6.93 9.69 9.69 0 0 1-3.11 2 9.9 9.9 0 0 1-3.8.78zM126.32 7a2.62 2.62 0 0 1-1.06-.22 2.84 2.84 0 0 1-1.48-1.48 2.62 2.62 0 0 1-.22-1.06 2.68 2.68 0 0 1 .22-1.07 2.82 2.82 0 0 1 .6-.89 2.85 2.85 0 0 1 .88-.6 2.62 2.62 0 0 1 1.06-.22 2.68 2.68 0 0 1 1.07.22 2.79 2.79 0 0 1 1.48 1.48 2.68 2.68 0 0 1 .22 1.07 2.62 2.62 0 0 1-.22 1.06 2.85 2.85 0 0 1-.6.88 2.82 2.82 0 0 1-.89.6 2.68 2.68 0 0 1-1.07.22zM124 8.49h4.62v18.65H124zm6.75 9.32a10.46 10.46 0 0 1 .68-3.81 9.4 9.4 0 0 1 1.91-3.08 8.8 8.8 0 0 1 2.94-2.06 9.28 9.28 0 0 1 3.72-.73 8.34 8.34 0 0 1 2.82.46 7.59 7.59 0 0 1 2.44 1.47V2.9h4.62v24.24h-4.62v-1.57a7.31 7.31 0 0 1-2.44 1.48 8.5 8.5 0 0 1-2.82.45 9.28 9.28 0 0 1-3.75-.75 8.8 8.8 0 0 1-2.94-2.06 9.4 9.4 0 0 1-1.91-3.08 10.46 10.46 0 0 1-.64-3.8zm9.89 5.33a5.93 5.93 0 0 0 1.16-.14 5.35 5.35 0 0 0 1.21-.4 5.66 5.66 0 0 0 1.19-.76 6.82 6.82 0 0 0 1.11-1.17v-5.75a6.55 6.55 0 0 0-1.11-1.16A6.22 6.22 0 0 0 143 13a5.09 5.09 0 0 0-1.21-.41 6 6 0 0 0-1.15-.12 5.07 5.07 0 0 0-2 .4A4.91 4.91 0 0 0 137 14a5.22 5.22 0 0 0-1.08 1.69 5.94 5.94 0 0 0 0 4.24 5.22 5.22 0 0 0 1.08 1.7 4.91 4.91 0 0 0 1.63 1.12 5.07 5.07 0 0 0 2 .4zm-38.75-10.47c-3.1 0-4.47 1.6-4.47 3.87v10.6H92.8V16.67c0-4.37 2.55-8.66 9.09-8.66"/></g></g></svg>