<svg xmlns="http://www.w3.org/2000/svg" viewBox="0 0 82.13 30"><defs><style>.cls-1{fill:#44576b}</style></defs><title>Asset 4</title><g id="Layer_2" data-name="Layer 2"><path class="cls-1" d="M13.49 2.61A6.42 6.42 0 0 1 18.21 0a6.41 6.41 0 0 1-1.55 4.8 5.07 5.07 0 0 1-4.47 2.1 5.57 5.57 0 0 1 1.3-4.29zm-1.06 6c1 0 2.9-1.39 5.35-1.39a6.7 6.7 0 0 1 5.88 3 6.51 6.51 0 0 0-3.24 5.68 6.68 6.68 0 0 0 4 6.11s-2.83 8-6.64 8c-1.75 0-3.12-1.18-5-1.18S9.1 30 7.89 30C4.4 30 0 22.46 0 16.39S3.73 7.3 7.22 7.3c2.27 0 4 1.31 5.22 1.31zm15.78-.01a1.86 1.86 0 0 1 3.72 0 1.86 1.86 0 0 1-3.72 0zm.26 4.1h3.18v15.91h-3.18zm15.15-5.22a6.64 6.64 0 0 1 7 6.94 6.72 6.72 0 0 1-7.08 7h-4.92v7.22h-3.28V7.48zm-5 11.16h4.13c2.84 0 4.48-1.54 4.48-4.2s-1.63-4.19-4.48-4.19h-4.13zm12.6 5.42c0-2.78 2.15-4.39 6.08-4.64l4.29-.25v-1.23c0-1.82-1.22-2.81-3.34-2.81A3 3 0 0 0 55 17.39h-3c.09-2.81 2.75-4.89 6.33-4.89 3.88 0 6.39 2.05 6.39 5.2v10.91h-3V26h-.07a5.56 5.56 0 0 1-5 2.81c-3.23-.04-5.43-1.91-5.43-4.75zm10.37-1.42v-1.25l-3.87.26c-2.17.13-3.3.94-3.3 2.34s1.19 2.24 3 2.24c2.38.01 4.17-1.5 4.17-3.59zm5.61-1.99c0-4.89 2.72-8.1 6.68-8.1a5.38 5.38 0 0 1 5 2.8H79V6.52h3.16v22.09h-3.11v-2.7H79a5.45 5.45 0 0 1-5.08 2.86c-3.99 0-6.72-3.2-6.72-8.12zm3.25 0c0 3.3 1.68 5.42 4.26 5.42S79 23.91 79 20.66s-1.71-5.42-4.26-5.42-4.29 2.14-4.29 5.42z" id="Layer_1-2" data-name="Layer 1"/></g></svg>