<svg xmlns="http://www.w3.org/2000/svg" viewBox="0 0 117.74 30"><defs><style>.cls-1{fill:#44576b}</style></defs><title>Asset 3</title><g id="Layer_2" data-name="Layer 2"><path class="cls-1" d="M13.49 2.61A6.42 6.42 0 0 1 18.21 0a6.41 6.41 0 0 1-1.55 4.8 5.07 5.07 0 0 1-4.47 2.1 5.57 5.57 0 0 1 1.3-4.29zm-1.06 6c1 0 2.9-1.39 5.35-1.39a6.7 6.7 0 0 1 5.88 3 6.51 6.51 0 0 0-3.24 5.68 6.68 6.68 0 0 0 4 6.11s-2.83 8-6.64 8c-1.75 0-3.12-1.18-5-1.18S9.1 30 7.89 30C4.4 30 0 22.46 0 16.39S3.73 7.3 7.22 7.3c2.27 0 4 1.31 5.22 1.31zm15.78-.01a1.86 1.86 0 0 1 3.72 0 1.86 1.86 0 0 1-3.72 0zm.26 4.1h3.18v15.91h-3.18zm15.15-5.22a6.64 6.64 0 0 1 7 6.94 6.72 6.72 0 0 1-7.08 7h-4.92v7.22h-3.28V7.48zm-5 11.16h4.13c2.84 0 4.48-1.54 4.48-4.2s-1.63-4.19-4.48-4.19h-4.13zM53.27 6.52h3.15v8.86h.07a5.15 5.15 0 0 1 5-2.86c3.5 0 5.6 2.33 5.6 5.92v10.17h-3.15v-9.55c0-2.37-1.19-3.81-3.52-3.81s-4 1.7-4 4.25v9.11h-3.15zm16.31 14.14c0-5 2.94-8.16 7.53-8.16s7.51 3.15 7.51 8.16-2.92 8.14-7.52 8.14-7.52-3.13-7.52-8.14zm11.82 0c0-3.47-1.6-5.52-4.29-5.52s-4.31 2.06-4.31 5.52 1.61 5.51 4.31 5.51 4.29-2.04 4.29-5.51zm5.77-7.95h3v2.68h.06a5.14 5.14 0 0 1 5-2.86c3.52 0 5.52 2.23 5.52 5.89v10.2h-3.12V19c0-2.42-1.11-3.76-3.44-3.76s-3.84 1.67-3.84 4.17v9.18h-3.18zM117.58 24c-.45 2.86-3.25 4.85-6.83 4.85-4.61 0-7.49-3.11-7.49-8.09s2.9-8.22 7.35-8.22 7.12 3 7.12 7.85v1.11h-11.26v.19c0 2.75 1.73 4.57 4.34 4.57a3.66 3.66 0 0 0 3.74-2.26zm-11.09-4.75h8.07a3.88 3.88 0 0 0-4-4.12 4.11 4.11 0 0 0-4.07 4.08z" id="Layer_1-2" data-name="Layer 1"/></g></svg>