<svg xmlns="http://www.w3.org/2000/svg" viewBox="0 0 82.69 25.67"><defs><style>.cls-1{fill:#44576b}</style></defs><title>Asset 1</title><g id="Layer_2" data-name="Layer 2"><g id="Layer_1-2" data-name="Layer 1"><path class="cls-1" d="M13 8.44A4.22 4.22 0 0 0 8.82 4.2H6.74v8.44h2.08A4.22 4.22 0 0 0 13 8.44m9.5 16.84h-7.65l-6.07-8.43h-2v8.41H0V0h9.66c5.57 0 10.11 3.79 10.11 8.44a8.2 8.2 0 0 1-4.39 6.93l7.13 9.91"/><path class="cls-1" d="M30.1 10c-1.78 0-3.29 2.42-3.29 5.41s1.51 5.42 3.29 5.42 3.33-2.42 3.33-5.42S31.92 10 30.1 10m10.37 5.41A10.36 10.36 0 1 1 30.1 5.07a10.32 10.32 0 0 1 10.37 10.3m15.82-9.88l-7.76 7.76V5.46h-6.74v19.8h6.74v-8l8.11 8h8.48L54.81 15l8.53-8.53v11.7c0 3.9 2.35 7.5 8.25 7.5a9.36 9.36 0 0 0 6.63-3l3 2.61h1.44V5.49H76v12.8a3.78 3.78 0 0 1-3.45 2.16c-1.66 0-2.42-1-2.42-4.13V5.49H56.29z"/></g></g></svg>